export default <svg version="1.1" xmlns="http://www.w3.org/2000/svg" width="80px" height="80px" viewBox="0,0,256,256">
				<g transform="translate(8.25806,8.25806) scale(0.93548,0.93548)">
					<g fill="#ffee32" fillRule="nonzero" stroke="none" strokeWidth="1" strokeLinecap="butt" strokeLinejoin="miter" 
					strokeMiterlimit="10" strokeDasharray="" strokeDashoffset="0" fontFamily="none" fontWeight="none" fontSize="none" 
					textAnchor="none" ><g transform="scale(2.06452,2.06452)">
					<path d="M62,26c-27.434,0 -60.05859,33.19247 -61.43359,34.60547c-0.756,0.776 -0.756,2.01306 0,2.78906c1.375,1.413 33.99959,
					34.60547 61.43359,34.60547c27.434,0 60.05859,-33.19247 61.43359,-34.60547c0.756,-0.776 0.756,-2.01306 0,-2.78906c-1.375,
					-1.413 -33.99959,-34.60547 -61.43359,-34.60547zM62,30c17.462,0 31.66797,14.355 31.66797,32c0,17.645 -14.20597,
					32 -31.66797,32c-17.462,0 -31.66797,-14.355 -31.66797,-32c0,-17.645 14.20597,-32 31.66797,-32zM34.51758,39.125c-5.104,
					6.22 -8.18555,14.184 -8.18555,22.875c0,8.671 3.06553,16.6257 8.14453,22.8457c-13.79,-8.026 -25.65591,
					-19.0007 -29.62891,-22.8457c3.977,-3.849 15.86292,-14.845 29.66992,-22.875zM89.57813,39.23242c13.76601,
					8.004 25.60622,18.92658 29.57421,22.76758c-3.973,3.846 -15.84086,14.80145 -29.63086,22.81445c5.08,-6.207 8.14648,-14.14745 8.14648,-22.81445c0,
					-8.64 -3.04184,-16.56358 -8.08984,-22.76758zM62,43.45703c-1.104,0 -2,0.896 -2,2c0,1.104 0.896,2 2,2c7.93,0 14.38086,
					6.52397 14.38086,14.54297c0,8.019 -6.45086,14.54297 -14.38086,14.54297c-7.93,0 -14.38086,-6.52397 -14.38086,-14.54297c0,
					-1.104 -0.896,-2 -2,-2c-1.104,0 -2,0.896 -2,2c0,10.224 8.24586,18.54297 18.38086,18.54297c10.135,0 18.38086,
					-8.31897 18.38086,-18.54297c0,-10.224 -8.24586,-18.54297 -18.38086,-18.54297z"></path>
					</g></g>
				</g>
			</svg>
